<?xml version="1.0" standalone="no"?>
<!DOCTYPE svg PUBLIC "-//W3C//DTD SVG 1.1//EN" "http://www.w3.org/Graphics/SVG/1.1/DTD/svg11.dtd" >
<svg xmlns="http://www.w3.org/2000/svg">
<metadata></metadata>
<defs>
<font id="soymilkregular" horiz-adv-x="1014" >
<font-face units-per-em="2048" ascent="1638" descent="-410" />
<missing-glyph horiz-adv-x="508" />
<glyph horiz-adv-x="0" />
<glyph unicode="&#xd;" horiz-adv-x="508" />
<glyph unicode=" "  horiz-adv-x="508" />
<glyph unicode="&#x09;" horiz-adv-x="508" />
<glyph unicode="&#xa0;" horiz-adv-x="508" />
<glyph unicode="!" horiz-adv-x="231" d="M42 933q0 24 28 24q44 0 44 -176q4 -34 4 -128v-312q0 -6 -16 -16h-20q-6 0 -16 16v228q0 279 -24 364zM54 165v4q0 44 32 44t40 -44q-10 -36 -36 -36h-16q-20 10 -20 32z" />
<glyph unicode="&#x22;" horiz-adv-x="545" d="M160 1084q0 28 8 44q-8 13 -8 24q0 28 28 28q25 0 32 -40v-20q-6 -56 -36 -56q-16 6 -24 20zM244 1080q12 20 12 52l-8 28q0 28 28 28q25 0 32 -40v-44q0 -39 -28 -56h-16q-20 10 -20 32z" />
<glyph unicode="#" horiz-adv-x="734" d="M105 508q0 29 124 56l8 8q-17 38 -84 136v8q0 24 28 24q26 0 100 -132q3 -20 12 -20q67 28 88 28q0 13 -60 108v4q0 28 28 28q22 0 92 -124q77 16 120 20q20 -6 20 -28v-8q0 -18 -112 -36v-4q41 -72 44 -72l72 12q36 0 36 -32q0 -26 -84 -32q80 -146 80 -172 q-6 -20 -28 -20h-8q-11 4 -100 176q-25 0 -108 -36l56 -172v-12q-12 -20 -28 -20q-26 0 -72 164l-12 20q-86 -28 -120 -28q-28 0 -28 28v4q0 28 28 28l20 -4q80 19 80 28l-32 80l-140 -36q-20 6 -20 28zM317 536q28 -80 36 -80q101 32 104 32q-41 75 -52 80l-88 -28v-4z" />
<glyph unicode="$" horiz-adv-x="622" d="M84 379q0 24 28 24q9 0 76 -60l8 -4v96q0 34 4 100q-84 0 -100 108v12q0 85 104 184v120q0 28 28 28q24 0 24 -28v-100h44q-8 46 -8 64v20q0 28 28 28t32 -88v-36q14 -15 40 -60v-8q0 -28 -28 -28q-7 0 -20 8v-20q0 -40 -4 -120h20q63 0 124 -84q28 -65 28 -104 q-16 -92 -48 -124q-61 -55 -136 -68v-136q0 -28 -28 -28q-24 0 -24 28v136q0 9 -28 12v-156q0 -32 -32 -32q-7 0 -24 20l4 48v140q-109 68 -112 108zM156 659q0 -68 48 -68q4 66 4 100v48l-4 20q-18 0 -48 -96v-4zM248 311l28 -8v100q0 85 8 144l-28 -4q-8 -116 -8 -224v-8z M260 599h4q20 8 20 12q8 133 8 180v8l-4 8q-28 -5 -28 -12q4 -98 4 -108q-4 -70 -4 -88zM328 295q120 38 120 108q8 0 8 36q0 78 -80 120q0 4 -40 4q-8 -189 -8 -224v-44z" />
<glyph unicode="%" horiz-adv-x="783" d="M91 639v32q0 66 84 92q8 0 40 -28q64 -34 64 -76v-32q0 -51 -88 -60h-8q-92 0 -92 72zM143 655q0 -36 44 -36q40 9 40 20q-14 52 -52 52h-12q-20 -10 -20 -36zM199 179q60 97 124 240q187 363 244 464q13 8 24 8q24 0 24 -28q0 -10 -88 -168q-235 -473 -272 -528 q-13 -20 -32 -20q-24 8 -24 32zM455 287v12q0 84 88 120l96 -44q32 -50 32 -96q-20 -76 -56 -76q0 -8 -40 -8h-28q-92 15 -92 92zM507 295q0 -43 56 -48q52 0 52 44q-9 60 -60 60q-42 0 -48 -56z" />
<glyph unicode="&#x26;" horiz-adv-x="562" d="M70 257v80q0 70 88 188q-72 108 -72 180v12q0 106 180 136h24q100 -12 100 -92v-12q0 -81 -156 -224q121 -104 132 -104v4q0 18 80 44q28 0 28 -28q0 -24 -56 -40l-12 -16q3 0 80 -80q28 -8 28 -32q-5 -16 -20 -24h-4q-34 0 -112 84q-28 -90 -136 -156q-44 -16 -68 -16 h-24q-58 0 -80 96zM122 297q0 -84 44 -84q73 0 156 120q0 9 12 40q-54 39 -136 112q-76 -97 -76 -176v-12zM138 709q38 -140 60 -140q140 129 140 180q0 48 -52 48v4q-144 -24 -144 -80q0 -4 -4 -12z" />
<glyph unicode="'" horiz-adv-x="346" d="M112 957v6q0 109 42 109q28 -5 28 -38q0 -109 -42 -109h-5q-6 0 -23 32z" />
<glyph unicode="(" horiz-adv-x="454" d="M70 576v4q0 180 144 332q7 0 36 20h8q28 0 28 -28q0 -10 -64 -68q-84 -104 -84 -180q-11 -19 -16 -92q0 -221 164 -380q40 -29 40 -48q0 -16 -16 -24h-12q-49 9 -160 168q-68 124 -68 296z" />
<glyph unicode=")" horiz-adv-x="580" d="M146 954q0 24 28 24q27 -4 160 -148q108 -128 108 -352q0 -223 -216 -380h-8q-24 0 -24 28q0 20 80 84q116 122 116 276q0 220 -144 360q-100 84 -100 108z" />
<glyph unicode="*" horiz-adv-x="859" d="M230 688q0 28 92 28h4l4 8q-92 60 -92 84t28 24q13 0 108 -72h4q-20 80 -20 96q0 24 28 24q29 0 40 -92h4q53 76 76 76q24 0 24 -28q0 -11 -64 -96h4l136 20q24 0 24 -28v-16q0 -17 -124 -24q-28 -5 -28 -12q152 -95 152 -124v-16q-6 -16 -28 -16q-15 0 -28 24 q-71 47 -104 72h-4q16 -60 16 -92v-4q0 -28 -28 -28q-29 0 -40 116q-5 0 -12 40q-96 -100 -120 -100q-20 6 -20 28v12q64 64 64 68h-68q-28 0 -28 28z" />
<glyph unicode="+" horiz-adv-x="692" d="M146 605v8q3 24 24 24q32 0 124 -8q-4 88 -4 132q6 20 28 20q28 0 28 -92q0 -10 4 -60q29 0 88 8q60 -4 60 -24v-8q0 -22 -20 -28q-14 0 -36 4q-38 -4 -76 -4h-12q0 -56 4 -152q0 -43 -36 -48q-4 0 -24 16q0 2 4 52q-4 109 -4 132h-4q-148 0 -148 28z" />
<glyph unicode="," horiz-adv-x="426" d="M126 298q16 32 44 32q56 -13 56 -48q16 -4 16 -40q-19 -68 -56 -68q-16 6 -24 20v20q0 2 24 28v4q0 11 -40 16q-20 21 -20 36z" />
<glyph unicode="-" horiz-adv-x="670" d="M167 567q3 24 24 24q251 -8 280 -8q20 -6 20 -28q0 -24 -28 -24h-16q-276 0 -276 20q-4 7 -4 16z" />
<glyph unicode="." horiz-adv-x="356" d="M133 221q11 27 24 32h20q28 0 28 -28q0 -44 -36 -44q-27 0 -36 40z" />
<glyph unicode="/" horiz-adv-x="251" d="M-126 133q0 13 208 292q213 297 276 372h12q24 0 24 -28q0 -14 -300 -420q-160 -226 -188 -244h-8q-24 0 -24 28z" />
<glyph unicode="0" horiz-adv-x="587" d="M104 430v80q0 122 92 288q39 44 56 44q94 -20 132 -60q53 -52 76 -168q16 -73 16 -100v-60q8 -58 8 -64v-24q-12 -263 -144 -296h-40q-94 23 -128 76q-62 132 -68 284zM156 454q27 -294 104 -312q42 -20 52 -20h20q51 25 76 96q24 144 24 156l-16 192q-42 212 -144 212 q-57 -30 -88 -132q-28 -125 -28 -168v-24z" />
<glyph unicode="1" horiz-adv-x="503" d="M160 741q53 96 84 96q25 0 32 -40v-32q24 -193 24 -236v-120l16 -144v-132q0 -56 -36 -56q-24 0 -24 28v12q0 4 8 32v96l-16 136v100q0 65 -24 260q-21 -28 -40 -28q-24 0 -24 28z" />
<glyph unicode="2" horiz-adv-x="580" d="M83 755q66 136 124 136h44q42 0 104 -48q43 -24 64 -104l4 -28v-36q0 -63 -156 -184q-92 -134 -92 -232q8 -25 8 -32h16q68 8 76 8h124q52 -8 52 -24v-20q0 -6 -16 -16h-8q-5 0 -44 8h-88q-68 -8 -76 -8h-60q-32 0 -32 56q-4 0 -4 16v28q0 121 116 264q132 102 132 156 q0 84 -92 132q-34 12 -48 12h-4q-49 0 -84 -96q-17 -16 -32 -16q-28 0 -28 28z" />
<glyph unicode="3" horiz-adv-x="685" d="M118 752q0 71 156 104h24q99 0 128 -76v-72q-11 -49 -28 -76q51 -5 112 -64q40 -62 44 -116v-72q-16 -94 -44 -132q-70 -100 -188 -100q-24 0 -64 -8q-72 5 -72 36q0 24 28 24h8q21 0 36 -4q154 0 196 72q29 20 48 132v36q0 74 -72 128q-39 15 -84 24q-79 -40 -120 -40 q-36 0 -36 32q0 41 148 64q27 33 36 84v16q0 56 -68 56q0 4 -20 4q-65 -12 -104 -40q-13 -40 -40 -40q-24 0 -24 28z" />
<glyph unicode="4" horiz-adv-x="503" d="M97 613v20q8 24 40 240q11 16 28 16q24 -3 24 -24q0 -36 -36 -236l20 -4h32q6 0 64 -8h12v196q0 28 28 28t28 -92v-132q12 0 20 -16v-20q-8 -16 -20 -16q4 -60 4 -88v-132q8 -39 8 -44v-68q0 -28 4 -88l-16 -12h-8q-32 0 -32 56v80q-12 73 -12 160v136h-36 q-148 9 -148 32q-4 7 -4 16z" />
<glyph unicode="5" horiz-adv-x="671" d="M139 241v4q0 5 20 20h4q49 -24 80 -24q105 16 144 44q84 76 84 156q4 0 4 12q0 49 -52 104q-76 32 -128 32h-48q-28 -8 -32 -8q-40 0 -40 132q-4 50 -4 124q6 20 28 20l28 -8h176q28 0 28 -28q0 -24 -28 -24h-176q4 -135 4 -156h80q139 0 200 -112q16 -44 16 -60v-24 q0 -131 -140 -224q-87 -32 -136 -32h-28q-73 0 -84 52z" />
<glyph unicode="6" horiz-adv-x="741" d="M125 402v60q0 154 104 372q68 72 96 72h80q28 0 28 -28q0 -24 -28 -24h-60q-33 0 -84 -76q-84 -203 -84 -352q0 -121 72 -164q-12 42 -12 52v44q28 104 60 104q68 60 128 60h4q113 0 148 -132v-40q0 -106 -144 -156q-66 -12 -100 -12h-20q-65 0 -148 80q-40 73 -40 140z M289 334q0 -16 20 -72l-4 -24l28 -4q188 17 188 120q4 0 4 12q-16 100 -92 100h-4q-62 0 -124 -72q0 -2 -16 -48v-12z" />
<glyph unicode="7" horiz-adv-x="622" d="M105 835q0 32 64 32h84q6 0 64 -8h124q52 0 52 -36v-4q-3 -51 -76 -208q48 0 48 -28q0 -24 -28 -24h-40q-28 -34 -156 -376q0 -64 -36 -64q-28 8 -28 32q42 154 156 408q-116 0 -116 32v4q3 24 24 24q88 -4 116 -4q72 145 76 192h-144q-5 0 -44 8h-56q-58 -8 -60 -8 q-24 0 -24 28z" />
<glyph unicode="8" horiz-adv-x="678" d="M111 635v12q0 54 52 132q46 32 92 32q0 9 36 12q128 -51 128 -96q8 0 24 -60v-88q-12 -77 -12 -92q93 -75 116 -152q16 -61 16 -80v-20q0 -89 -104 -140l-28 -4h-32q-68 0 -160 88l-8 28v36q11 67 120 208v12q-149 28 -184 60q-28 0 -56 112zM167 647q0 -72 68 -100 q128 -32 140 -32q9 11 16 84v44q-24 100 -60 100q-3 8 -40 20q-6 -16 -28 -16q-4 0 -32 8q-32 0 -60 -88zM283 223q0 -32 96 -72q34 -8 40 -8q60 0 88 84q0 3 4 24q-20 109 -88 172l-16 12q-115 -149 -124 -212z" />
<glyph unicode="9" horiz-adv-x="692" d="M167 643v40q0 60 56 120q21 21 92 36q152 -28 152 -52q24 -33 24 -56v-56q0 -24 -4 -24l4 -40v-420q0 -6 -16 -16h-20q-6 0 -16 16v396h-4q-34 -28 -132 -48h-24q-112 13 -112 104zM219 659q0 -60 48 -60q0 -8 20 -8q137 28 144 80v84q-85 20 -108 28q-89 0 -104 -116v-8 z" />
<glyph unicode=":" horiz-adv-x="349" d="M126 159q7 32 52 32q24 -8 24 -32v-4q0 -30 -40 -36q-27 0 -36 40zM130 435q0 32 32 32h4q32 0 32 -40q-7 -18 -24 -28h-8q-36 5 -36 36z" />
<glyph unicode=";" horiz-adv-x="377" d="M140 168q0 6 32 40l-4 24q13 28 52 28q24 -8 24 -32v-4q0 -29 -64 -84h-12q-28 0 -28 28zM172 504q0 32 32 32h4q32 0 32 -40q-7 -18 -24 -28h-8q-36 5 -36 36z" />
<glyph unicode="&#x3c;" horiz-adv-x="622" d="M97 541q23 34 140 96q112 77 244 132q28 0 28 -28q0 -27 -156 -92q-52 -40 -192 -120v-4l132 -148q152 -173 152 -184v-4q0 -16 -20 -28h-8q-19 0 -64 64q-156 180 -244 272q-12 31 -12 44z" />
<glyph unicode="=" d="M0 44q0 12 16 24q328 0 328 -28q4 -7 4 -16v-4q0 -5 -20 -20q-60 8 -312 16q-16 11 -16 28zM12 228v8q0 28 28 28q27 -8 132 -12q74 4 124 4q20 -6 20 -28q0 -24 -56 -24q-5 -4 -84 -4q-164 0 -164 28z" />
<glyph unicode="&#x3e;" horiz-adv-x="783" d="M196 725v8q0 28 28 28q10 0 100 -88q39 -19 284 -260v-16q-3 -14 -128 -104q-78 -70 -212 -152q0 -8 -20 -8q-25 0 -28 32q13 23 156 112q0 3 164 132q-46 36 -200 184q-142 112 -144 132z" />
<glyph unicode="?" horiz-adv-x="692" d="M98 644v8q0 137 124 188q45 24 100 24q120 0 232 -100q32 -47 32 -84q0 -102 -200 -240q-40 -41 -40 -136q-18 -16 -28 -16q-24 10 -24 24q0 155 104 204q132 102 132 160v8q0 81 -192 124h-20q-106 0 -164 -108q0 -17 -4 -44q8 -13 8 -24q0 -28 -28 -28q-25 0 -32 40z M290 108v8q14 24 36 24q24 0 32 -28q0 -36 -32 -36q-36 0 -36 32z" />
<glyph unicode="@" horiz-adv-x="824" d="M87 421v24q0 187 180 280q51 12 76 12h56q128 0 208 -128q8 -32 8 -40v-16q-31 -84 -96 -84h-16l-20 4q-31 -88 -88 -88h-16q-75 0 -92 100q0 81 112 124h24q48 0 72 -48l-4 -28q13 -8 24 -8q27 0 44 32v4q0 79 -140 120q-6 0 -56 4q-151 0 -212 -172q-12 -55 -12 -76 q0 -72 132 -144q67 -28 116 -28q173 0 240 108q34 44 40 44h4q28 0 28 -28q-17 -62 -124 -140q-75 -36 -160 -36h-48q-154 0 -268 160q-12 36 -12 48zM343 481q0 -32 44 -44q29 0 48 68l-4 24v12l4 8l-20 8q-72 -29 -72 -76z" />
<glyph unicode="A" horiz-adv-x="531" d="M-8 373v56q11 66 44 104q88 76 140 76h68q70 0 128 -112q5 -44 12 -44l-4 -20v-12q15 -88 44 -88h12q29 0 88 72h8q28 0 28 -28q0 -38 -96 -96h-56q-31 0 -52 40q-56 -66 -148 -88h-12q-152 29 -152 64q-52 41 -52 76zM44 393q0 -77 124 -100q22 -4 36 -4q112 36 112 96 q8 0 8 20v60q-38 92 -100 92h-20q-64 0 -132 -68q-16 -21 -28 -72v-24z" />
<glyph unicode="B" horiz-adv-x="622" d="M-7 423v316q29 260 56 260q0 45 128 80q43 0 84 -52q36 -55 36 -140q4 0 4 -28v-36q0 -119 -180 -352h32q77 -4 168 -56q61 -58 72 -104q18 0 220 112h20q20 -6 20 -28q0 -23 -136 -84q-90 -56 -112 -56v-80q0 -65 -96 -120q-27 -12 -76 -20q-78 0 -164 84 q-64 111 -64 212q-4 0 -12 92zM45 471q204 235 204 372q-10 153 -56 176h-12q-95 0 -112 -128q-8 -40 -24 -172v-248zM65 279q24 -109 68 -148q67 -40 96 -40q86 0 124 92v48q-52 -12 -72 -12h-84q-56 0 -132 60zM69 387q0 -54 92 -104q42 -12 52 -12h60q68 7 68 24 q-49 96 -100 96q0 13 -108 28q-64 -13 -64 -32z" />
<glyph unicode="C" horiz-adv-x="468" d="M-27 404v15q0 134 169 195h49q119 0 142 -113v-41q0 -34 -30 -34q-22 3 -22 23l3 34q0 82 -112 82q-78 0 -135 -97q-11 -25 -15 -57q0 -114 195 -153h11q128 0 203 127q0 38 37 38h4q7 0 15 -23q-11 -63 -67 -116q-89 -79 -192 -79q-95 0 -210 86q-45 54 -45 113z" />
<glyph unicode="D" horiz-adv-x="559" d="M7 415v32q0 124 140 168q21 4 40 4h52v4q-52 218 -52 364v8q0 144 108 236q32 12 40 12q96 -21 96 -160v-92q0 -244 -68 -600q55 -112 88 -112q34 8 56 48q0 73 44 80q24 0 24 -28q0 -67 -64 -132q-42 -24 -56 -24h-12q-42 0 -104 96h-4q-48 -88 -136 -88h-40 q-66 0 -128 84q-24 46 -24 100zM59 435q0 -118 92 -148l36 -4q79 0 112 88l4 24q-17 34 -52 160q-21 12 -48 12q-109 0 -140 -100q-4 -28 -4 -32zM239 979q0 -109 68 -408q20 -22 20 -72h4q48 380 48 532q0 156 -48 156q-42 0 -88 -160q0 -20 -4 -48z" />
<glyph unicode="E" horiz-adv-x="314" d="M-7 368v40q0 111 108 204q66 32 84 32h36q38 0 56 -68v-60q0 -97 -184 -144q-8 -4 -44 -8v-4q0 -70 104 -84q100 28 100 64q41 56 72 56h8q6 0 12 -12v-16q-86 -140 -168 -140q0 -4 -16 -4h-24q-144 22 -144 144zM49 420h4q83 0 164 76q8 28 8 48v12q-8 36 -20 36h-8 q-49 -6 -112 -72q-21 -32 -36 -100z" />
<glyph unicode="F" horiz-adv-x="280" d="M-8 610q0 147 72 342q61 121 112 121h12q49 0 60 -97q4 -33 4 -55v-23q0 -159 -132 -420q-36 -58 -52 -74q20 0 72 -46q29 0 108 46l36 8q24 -2 24 -12v-4q0 -27 -52 -46q0 -12 -72 -35v-8q104 -128 104 -451q0 -280 -160 -280h-4q-104 36 -104 152q-4 0 -4 39v322 q0 36 -24 521zM44 603q8 -53 8 -113v-12q86 123 132 327q16 91 16 109q0 11 -16 105h-4q-33 -8 -84 -133q-52 -193 -52 -283zM60 295q8 -123 8 -163v-311q5 -171 36 -171q0 -6 24 -20h12q79 0 92 191q0 35 4 47q0 221 -76 385q-40 46 -44 46h-56v-4z" />
<glyph unicode="G" horiz-adv-x="468" d="M7 459q0 112 124 156q46 8 64 8q100 -26 100 -52q18 -20 28 -44l-4 -20v-32q0 -31 -12 -60l4 -8v-28q0 -52 12 -92h4q62 91 148 124q28 -5 28 -16v-4q0 -26 -96 -88q-32 -39 -68 -92q44 -215 44 -304v-96q0 -112 -76 -112h-8q-168 19 -168 164v12q0 122 112 304 q5 0 36 48q-20 84 -20 108v20q-51 -32 -104 -32q-98 0 -136 72q-12 26 -12 64zM63 447q0 -68 96 -68q76 0 100 76q0 31 8 56q-21 56 -84 56q-90 0 -116 -84q-4 -5 -4 -28v-8zM183 -133q0 -96 120 -116q23 0 28 80v52q0 69 -36 268h-4q-91 -131 -108 -284z" />
<glyph unicode="H" horiz-adv-x="440" d="M-43 87v72q0 5 8 44v36q32 68 32 200l8 108q-32 357 -32 436v84q0 154 160 292q36 20 56 20h36q46 0 64 -80v-56q0 -112 -112 -356q0 -18 -120 -268v-76q0 -37 -8 -172q32 24 48 24h24q51 0 80 -144q15 -28 20 -28h4q44 0 124 80q61 97 92 124h20q24 -2 24 -12v-4 q-30 -67 -116 -164q-83 -78 -140 -80h-12q-62 0 -88 144q-16 32 -20 32q-68 -34 -68 -96q-8 -93 -28 -188q-13 -8 -24 -8q-26 0 -32 36zM25 1019q8 -205 20 -288h4q48 86 172 416q16 69 16 132q0 34 -24 48h-8q-84 0 -168 -200q-12 -60 -12 -104v-4z" />
<glyph unicode="I" horiz-adv-x="272" d="M-10 349v112q15 200 44 200h8q24 0 24 -28q-24 -173 -24 -196v-60q4 -104 56 -112h16q37 10 100 80q16 18 36 68l20 4q28 -12 28 -40q-28 -76 -144 -156q0 -9 -60 -12q-104 25 -104 140zM14 833q0 16 16 24h32q32 -16 32 -52q-15 -32 -40 -32q-40 0 -40 60z" />
<glyph unicode="J" horiz-adv-x="377" d="M-60 -103q0 85 68 188l96 128q58 60 68 60v4q-55 209 -88 244h-4q-41 -132 -76 -132q-24 0 -24 28v8l60 136q26 24 44 24h4q60 0 128 -260q4 0 4 -8h8q144 76 168 76h8q24 -15 24 -36q0 -24 -56 -28q-4 -7 -100 -48l-32 -24q80 -195 80 -264v-108q-34 -128 -68 -128 q-69 -61 -120 -64h-32q-60 0 -124 56q-36 58 -36 84v64zM-8 -99v-48q19 -100 96 -100q0 -8 36 -8q144 50 144 172v44q0 73 -60 232q-9 28 -16 28q-110 -112 -136 -168q-37 -32 -64 -152zM52 777q13 56 52 56q18 0 36 -36v-8q-5 -40 -36 -40h-20q-32 3 -32 28z" />
<glyph unicode="K" horiz-adv-x="496" d="M-28 663v216q23 116 56 116q0 4 4 4h32q132 -34 132 -132v-12q0 -133 -148 -412v-4q20 -97 20 -116q45 82 124 108h32q64 -9 64 -56v-12q0 -56 -112 -148q51 -48 108 -48q55 0 124 116q12 10 88 136l12 8h4q24 0 32 -24q0 -22 -124 -204q-9 0 -44 -52q-50 -36 -84 -36 h-16q-71 0 -148 72h-4q-16 -8 -24 -8v-44q0 -60 16 -208q-6 -20 -28 -20h-8q-30 0 -44 272q-7 17 -28 188q-8 44 -24 64l4 28q-8 55 -16 208zM28 711q0 -61 4 -168q74 113 108 288v44q0 44 -88 72q-24 -35 -24 -88v-148zM108 243h4q120 79 120 124v8h-16q-58 0 -96 -80 q-12 -36 -12 -48v-4z" />
<glyph unicode="L" horiz-adv-x="370" d="M-7 527v32q8 68 8 76v196q8 211 32 280q58 92 100 92h28q66 0 108 -144v-44q0 -128 -108 -396q-106 -172 -108 -192v-28q22 -228 100 -228q148 38 148 88q48 57 48 136q18 16 28 16q20 0 20 -68v-4q0 -44 -80 -160q-98 -60 -168 -60h-16q-57 0 -100 96q-24 83 -36 200 q4 22 4 44q-8 54 -8 68zM45 535h4q93 151 136 312q32 145 32 192q0 60 -64 112q-64 0 -88 -152q-4 -4 -4 -32v-48q-8 -118 -8 -128v-180l-8 -72v-4z" />
<glyph unicode="M" horiz-adv-x="1300" d="M-42 353q42 96 176 236q61 48 96 48h40q81 0 104 -132v-44q54 53 128 64h20q62 0 104 -100h4q60 84 136 84q0 7 28 8q76 0 116 -72q24 -66 24 -104v-60q11 -68 20 -68h32q71 4 164 88q99 108 168 108l12 -16v-12l-116 -92q-126 -128 -212 -128h-72q-28 0 -48 92v68 q-14 136 -68 136l-20 4q-71 0 -120 -68q-40 -78 -40 -192q-7 -72 -28 -72h-20q-6 0 -16 16v36q0 21 16 144v4q-16 144 -72 144q-83 -19 -120 -72q-29 -35 -52 -172q-64 -180 -92 -180h-4q-24 0 -24 28q0 54 92 300q0 2 8 60v48q-12 100 -64 100h-8q-71 0 -196 -176 q-30 -61 -68 -72q-28 10 -28 16z" />
<glyph unicode="N" horiz-adv-x="880" d="M-28 401q19 76 184 160q32 8 40 8h48q45 0 84 -84v-24h4q30 26 60 28h68q104 0 140 -104q12 -102 24 -124q29 -20 44 -20q55 0 180 152q17 16 32 16q24 0 24 -28q0 -15 -132 -152q-60 -40 -88 -40h-36q-92 19 -92 128q0 96 -72 112q-15 8 -32 8h-40q-64 0 -116 -144 q-31 -67 -48 -76h-20q-6 0 -16 16v8q0 13 44 116q20 48 20 80v12q0 68 -60 68q-69 0 -184 -112q0 -25 -36 -32q-24 0 -24 28z" />
<glyph unicode="O" horiz-adv-x="433" d="M-7 328v60q0 124 132 196q36 20 56 20h44q27 0 32 -36q104 -92 104 -168l12 -20l60 40q32 -4 32 -32q-21 -34 -88 -72l4 -28v-8q0 -173 -124 -216q-28 -8 -48 -8q-93 0 -180 124q-36 86 -36 148zM45 364q0 -205 152 -252h24q66 0 100 104q0 26 8 56q-4 7 -4 20l-28 -4 h-44q-54 0 -140 100q-36 65 -36 84q-32 -35 -32 -108zM129 496q0 -48 68 -120q48 -36 80 -36h4q20 0 40 12q-27 118 -96 176l-28 8h-20q-21 0 -48 -32v-8z" />
<glyph unicode="P" horiz-adv-x="349" d="M-21 442q6 20 28 20q25 0 40 -72q70 80 112 80h52q31 -1 76 -48q9 -15 16 -44q35 32 52 32h8q6 0 16 -16v-12q0 -29 -76 -68q0 -89 -108 -128h-72v-4q124 -299 124 -376v-20q0 -91 -84 -136h-28q-41 0 -92 84q-44 106 -44 196q-4 0 -12 112v108q8 135 28 164 q-36 97 -36 128zM39 54q16 -210 52 -296q18 -35 48 -52h4q37 0 52 88v4q-40 185 -132 380q0 9 -12 40h-4q-8 -68 -8 -76v-88zM91 278q22 -40 64 -40h4q88 15 88 68h-80l-24 4q-52 -5 -52 -32zM95 358h4q16 0 52 8q26 -8 36 -8h44l20 4q0 40 -60 56h-4q-46 0 -92 -60z" />
<glyph unicode="Q" horiz-adv-x="629" d="M-14 446q0 70 96 208q62 67 176 67q0 4 28 4h4q96 -8 100 -34v-52q-16 -55 -40 -205q16 0 60 -33l28 -4h16q54 0 172 60h4q21 0 28 -26q0 -37 -176 -82q-48 -2 -48 -8q44 -123 92 -581q0 -82 -48 -153q-41 -26 -56 -26h-12q-131 0 -168 220q-8 23 -16 164q32 296 60 436 q-101 -90 -152 -90h-44q-40 0 -92 71q-12 49 -12 64zM42 434q0 -53 64 -74h8q79 0 172 134q48 121 48 175q-20 0 -48 8q-140 -18 -140 -38q-104 -112 -104 -205zM282 -28v-7q0 -266 100 -328l24 -4h16q48 35 48 127q0 62 -36 298q0 79 -60 291q-5 0 -32 33h-4 q-28 -149 -56 -410z" />
<glyph unicode="R" horiz-adv-x="545" d="M-41 380v12q64 66 64 168q13 72 44 72q84 -16 104 -16h56q84 -7 84 -56q28 -268 48 -268q44 0 164 128q7 4 16 4q24 0 24 -28v-8q-126 -152 -204 -152h-12q-69 0 -84 292q-8 0 -8 28h-12q-4 0 -32 8h-68q-5 0 -44 8h-16q-15 -124 -48 -176q-34 -44 -40 -44h-8 q-28 0 -28 28z" />
<glyph unicode="S" horiz-adv-x="426" d="M-14 417q91 83 204 260h12q31 0 60 -104q80 -133 80 -196q30 5 68 32q44 -10 44 -20v-12q-13 -27 -108 -60q-19 -108 -36 -108q-34 -28 -64 -28h-24q-107 0 -152 104v24q0 56 76 76h76q16 0 64 -16v8q0 41 -76 184q-12 20 -12 28h-4q0 -12 -76 -108q-2 -17 -92 -100h-24 q-10 0 -16 36zM122 305q30 -72 112 -72q48 0 52 68v16l-80 16h-40q-23 0 -44 -28z" />
<glyph unicode="T" horiz-adv-x="349" d="M-94 776q0 24 28 24h52v136q-8 58 -8 60q6 20 28 20q32 -7 32 -52v-156h100q28 0 28 -28q0 -24 -28 -24h-36q-64 0 -64 -12q0 -44 -4 -80q0 -271 84 -324q45 -36 60 -36h16q30 0 96 32q22 18 40 76l20 4q24 0 24 -28v-8q0 -93 -160 -128h-56q-71 22 -136 116 q-40 106 -40 264q-4 0 -4 24q0 11 8 92h-52q-28 0 -28 28z" />
<glyph unicode="U" horiz-adv-x="594" d="M-14 347v72q0 52 36 52q24 0 24 -28q-8 -32 -8 -40v-36q15 -128 36 -128q45 -48 84 -48q51 14 80 52q20 39 20 64v20l-16 100v16q12 20 28 20q31 0 48 -112q36 -120 92 -120h4q56 0 120 108q31 96 60 96h12q16 -6 16 -28q-47 -135 -116 -192q-42 -32 -84 -36h-24 q-52 0 -100 68q0 -61 -124 -108h-32q-79 0 -140 116q-8 15 -16 92z" />
<glyph unicode="V" horiz-adv-x="657" d="M-14 426v8q15 76 84 128q28 16 40 16h24q48 0 64 -92v-32q-16 -98 -16 -112v-8q0 -107 104 -208q91 94 136 180q-44 35 -44 84q0 57 80 68h4q30 0 56 -44v-8q-9 -49 -20 -68h12q37 0 148 80h16q20 -12 20 -28q-49 -63 -148 -104h-68q-41 -78 -152 -200q-9 -44 -40 -44 q-29 15 -56 64q-96 105 -96 184q-4 0 -4 16v64l16 108q-10 44 -20 44h-4q-35 0 -76 -76q-8 -48 -32 -48h-4q-24 0 -24 28zM434 386q4 -24 12 -24h4q8 26 8 36v4q-20 0 -24 -16z" />
<glyph unicode="W" horiz-adv-x="824" d="M-28 381v8q0 69 112 144q32 8 40 8h4q84 -14 84 -76v-16q-48 -206 -48 -224v-56q0 -24 28 -36q44 11 96 72q26 64 32 108q0 6 -8 64v32q10 20 32 20q32 0 32 -132q12 -115 40 -152q35 -41 100 -52h8q72 18 96 56q20 36 20 48v8q0 46 -64 56q-64 43 -64 84v32q9 44 44 44 h28q88 -36 88 -112h4q35 0 144 120q7 4 16 4q24 0 24 -28v-12q-20 -17 -64 -72q-82 -66 -108 -68l4 -28v-40q0 -54 -76 -116q-58 -28 -80 -28h-28q-80 0 -148 88q-20 45 -20 48h-4q-77 -96 -140 -96h-8q-76 15 -76 68v96q0 23 48 216q0 19 -36 24q-47 0 -96 -92 q0 -32 -28 -32h-8q-5 0 -20 20zM564 357q0 -27 52 -52v8q0 34 -48 56q-4 -8 -4 -12z" />
<glyph unicode="X" horiz-adv-x="587" d="M-25 408q54 130 136 168h72q78 0 140 -140q58 57 100 128l20 4q24 -8 24 -32q-26 -54 -120 -164q47 -120 96 -120q96 11 96 60q28 87 36 92q1 8 8 8h20q6 0 16 -16v-4q-32 -180 -112 -180q-30 -16 -68 -16h-4q-71 0 -128 132h-4q-91 -116 -124 -116q-28 0 -28 28 q0 11 72 76q0 5 60 72q-51 136 -112 136h-40q-58 -34 -88 -104q-17 -40 -44 -40q-24 0 -24 28z" />
<glyph unicode="Y" horiz-adv-x="496" d="M-10 323v88q0 28 28 28q24 0 24 -28v-68q0 -96 72 -112h8q66 0 92 140q0 56 24 56h4q32 0 32 -36v-4q0 -13 -8 -56q0 -19 32 -128q191 208 196 208h20q16 -6 16 -28q-1 -17 -184 -208l-24 -32l68 -176q40 -94 40 -184q0 -91 -140 -140h-84q-59 0 -132 140q-8 40 -8 52 q0 100 100 204q20 49 92 116q-16 40 -28 88q-48 -64 -100 -64h-24q-74 0 -112 104zM122 -141v-28q0 -61 80 -128q13 -8 24 -8h24q47 0 100 40q17 18 28 60q0 63 -96 300v4h-4q-156 -190 -156 -240z" />
<glyph unicode="Z" horiz-adv-x="719" d="M-49 -52q31 104 164 192q233 179 368 208h8q-7 76 -56 76h-40q-34 0 -128 -56h-4q-28 0 -28 28q0 25 80 72q52 47 52 56v16q0 12 -36 20q-131 0 -260 -128q0 -17 -56 -76q-7 -4 -16 -4q-24 0 -24 28v8q71 113 128 144q111 80 204 80h36q84 -18 84 -72q0 -19 -24 -64h52 q59 0 84 -80q0 -3 4 -24q57 16 176 40h16q20 -12 20 -28q0 -32 -144 -48q-64 -21 -64 -40q-46 -343 -92 -444q-73 -76 -128 -76h-136q-117 8 -156 28q-84 49 -84 96v48zM3 -72v-16q0 -31 72 -64q26 -12 156 -20h64q114 0 132 124q36 110 64 340h-4q-115 -36 -236 -120 q-153 -109 -204 -160q-44 -64 -44 -84z" />
<glyph unicode="[" horiz-adv-x="587" d="M146 170v32q0 158 48 584q0 104 28 104q208 -10 208 -28q4 -7 4 -16q0 -17 -20 -24l-164 12l-4 -28v-4q0 -46 -44 -496q-4 -74 -4 -108h4q22 0 176 12q20 -6 20 -28q0 -36 -176 -36h-52q-14 3 -24 24z" />
<glyph unicode="\" horiz-adv-x="349" d="M-7 823q8 40 36 40t28 -76q44 -84 160 -384q92 -193 92 -232v-4q-12 -20 -28 -20q-25 0 -44 80q-84 180 -200 480q-40 76 -44 116z" />
<glyph unicode="]" horiz-adv-x="510" d="M111 176v20q0 6 16 16h24q21 0 84 8v4q0 106 60 544q0 32 -4 32q-156 18 -156 32q-4 7 -4 16q0 18 20 24q200 -9 200 -60q0 -40 -60 -516q0 -124 -20 -124q-66 -12 -100 -12h-44q-6 0 -16 16z" />
<glyph unicode="^" horiz-adv-x="789" d="M195 919q0 46 116 228l20 4q84 -27 232 -228v-12q-8 -24 -32 -24q-29 17 -124 144q-62 52 -72 52q-35 -47 -96 -188l-20 -4q-24 0 -24 28z" />
<glyph unicode="_" horiz-adv-x="1024" d="M56 71q5 32 56 32q24 -16 36 -16h80q205 0 556 48q34 8 88 8h112q20 -12 20 -28q-5 -16 -20 -24h-80l-492 -52q-11 -4 -80 -4h-196q-80 0 -80 36z" />
<glyph unicode="`" horiz-adv-x="1024" />
<glyph unicode="a" horiz-adv-x="531" d="M-8 373v56q11 66 44 104q88 76 140 76h68q70 0 128 -112q5 -44 12 -44l-4 -20v-12q15 -88 44 -88h12q29 0 88 72h8q28 0 28 -28q0 -38 -96 -96h-56q-31 0 -52 40q-56 -66 -148 -88h-12q-152 29 -152 64q-52 41 -52 76zM44 393q0 -77 124 -100q22 -4 36 -4q112 36 112 96 q8 0 8 20v60q-38 92 -100 92h-20q-64 0 -132 -68q-16 -21 -28 -72v-24z" />
<glyph unicode="b" horiz-adv-x="622" d="M-7 423v316q29 260 56 260q0 45 128 80q43 0 84 -52q36 -55 36 -140q4 0 4 -28v-36q0 -119 -180 -352h32q77 -4 168 -56q61 -58 72 -104q18 0 220 112h20q20 -6 20 -28q0 -23 -136 -84q-90 -56 -112 -56v-80q0 -65 -96 -120q-27 -12 -76 -20q-78 0 -164 84 q-64 111 -64 212q-4 0 -12 92zM45 471q204 235 204 372q-10 153 -56 176h-12q-95 0 -112 -128q-8 -40 -24 -172v-248zM65 279q24 -109 68 -148q67 -40 96 -40q86 0 124 92v48q-52 -12 -72 -12h-84q-56 0 -132 60zM69 387q0 -54 92 -104q42 -12 52 -12h60q68 7 68 24 q-49 96 -100 96q0 13 -108 28q-64 -13 -64 -32z" />
<glyph unicode="c" horiz-adv-x="468" d="M-27 404v15q0 134 169 195h49q119 0 142 -113v-41q0 -34 -30 -34q-22 3 -22 23l3 34q0 82 -112 82q-78 0 -135 -97q-11 -25 -15 -57q0 -114 195 -153h11q128 0 203 127q0 38 37 38h4q7 0 15 -23q-11 -63 -67 -116q-89 -79 -192 -79q-95 0 -210 86q-45 54 -45 113z" />
<glyph unicode="d" horiz-adv-x="559" d="M7 415v32q0 124 140 168q21 4 40 4h52v4q-52 218 -52 364v8q0 144 108 236q32 12 40 12q96 -21 96 -160v-92q0 -244 -68 -600q55 -112 88 -112q34 8 56 48q0 73 44 80q24 0 24 -28q0 -67 -64 -132q-42 -24 -56 -24h-12q-42 0 -104 96h-4q-48 -88 -136 -88h-40 q-66 0 -128 84q-24 46 -24 100zM59 435q0 -118 92 -148l36 -4q79 0 112 88l4 24q-17 34 -52 160q-21 12 -48 12q-109 0 -140 -100q-4 -28 -4 -32zM239 979q0 -109 68 -408q20 -22 20 -72h4q48 380 48 532q0 156 -48 156q-42 0 -88 -160q0 -20 -4 -48z" />
<glyph unicode="e" horiz-adv-x="314" d="M-7 368v40q0 111 108 204q66 32 84 32h36q38 0 56 -68v-60q0 -97 -184 -144q-8 -4 -44 -8v-4q0 -70 104 -84q100 28 100 64q41 56 72 56h8q6 0 12 -12v-16q-86 -140 -168 -140q0 -4 -16 -4h-24q-144 22 -144 144zM49 420h4q83 0 164 76q8 28 8 48v12q-8 36 -20 36h-8 q-49 -6 -112 -72q-21 -32 -36 -100z" />
<glyph unicode="f" horiz-adv-x="280" d="M-8 610q0 147 72 342q61 121 112 121h12q49 0 60 -97q4 -33 4 -55v-23q0 -159 -132 -420q-36 -58 -52 -74q20 0 72 -46q29 0 108 46l36 8q24 -2 24 -12v-4q0 -27 -52 -46q0 -12 -72 -35v-8q104 -128 104 -451q0 -280 -160 -280h-4q-104 36 -104 152q-4 0 -4 39v322 q0 36 -24 521zM44 603q8 -53 8 -113v-12q86 123 132 327q16 91 16 109q0 11 -16 105h-4q-33 -8 -84 -133q-52 -193 -52 -283zM60 295q8 -123 8 -163v-311q5 -171 36 -171q0 -6 24 -20h12q79 0 92 191q0 35 4 47q0 221 -76 385q-40 46 -44 46h-56v-4z" />
<glyph unicode="g" horiz-adv-x="468" d="M7 459q0 112 124 156q46 8 64 8q100 -26 100 -52q18 -20 28 -44l-4 -20v-32q0 -31 -12 -60l4 -8v-28q0 -52 12 -92h4q62 91 148 124q28 -5 28 -16v-4q0 -26 -96 -88q-32 -39 -68 -92q44 -215 44 -304v-96q0 -112 -76 -112h-8q-168 19 -168 164v12q0 122 112 304 q5 0 36 48q-20 84 -20 108v20q-51 -32 -104 -32q-98 0 -136 72q-12 26 -12 64zM63 447q0 -68 96 -68q76 0 100 76q0 31 8 56q-21 56 -84 56q-90 0 -116 -84q-4 -5 -4 -28v-8zM183 -133q0 -96 120 -116q23 0 28 80v52q0 69 -36 268h-4q-91 -131 -108 -284z" />
<glyph unicode="h" horiz-adv-x="440" d="M-43 87v72q0 5 8 44v36q32 68 32 200l8 108q-32 357 -32 436v84q0 154 160 292q36 20 56 20h36q46 0 64 -80v-56q0 -112 -112 -356q0 -18 -120 -268v-76q0 -37 -8 -172q32 24 48 24h24q51 0 80 -144q15 -28 20 -28h4q44 0 124 80q61 97 92 124h20q24 -2 24 -12v-4 q-30 -67 -116 -164q-83 -78 -140 -80h-12q-62 0 -88 144q-16 32 -20 32q-68 -34 -68 -96q-8 -93 -28 -188q-13 -8 -24 -8q-26 0 -32 36zM25 1019q8 -205 20 -288h4q48 86 172 416q16 69 16 132q0 34 -24 48h-8q-84 0 -168 -200q-12 -60 -12 -104v-4z" />
<glyph unicode="i" horiz-adv-x="272" d="M-10 349v112q15 200 44 200h8q24 0 24 -28q-24 -173 -24 -196v-60q4 -104 56 -112h16q37 10 100 80q16 18 36 68l20 4q28 -12 28 -40q-28 -76 -144 -156q0 -9 -60 -12q-104 25 -104 140zM14 833q0 16 16 24h32q32 -16 32 -52q-15 -32 -40 -32q-40 0 -40 60z" />
<glyph unicode="j" horiz-adv-x="377" d="M-60 -103q0 85 68 188l96 128q58 60 68 60v4q-55 209 -88 244h-4q-41 -132 -76 -132q-24 0 -24 28v8l60 136q26 24 44 24h4q60 0 128 -260q4 0 4 -8h8q144 76 168 76h8q24 -15 24 -36q0 -24 -56 -28q-4 -7 -100 -48l-32 -24q80 -195 80 -264v-108q-34 -128 -68 -128 q-69 -61 -120 -64h-32q-60 0 -124 56q-36 58 -36 84v64zM-8 -99v-48q19 -100 96 -100q0 -8 36 -8q144 50 144 172v44q0 73 -60 232q-9 28 -16 28q-110 -112 -136 -168q-37 -32 -64 -152zM52 777q13 56 52 56q18 0 36 -36v-8q-5 -40 -36 -40h-20q-32 3 -32 28z" />
<glyph unicode="k" horiz-adv-x="496" d="M-28 663v216q23 116 56 116q0 4 4 4h32q132 -34 132 -132v-12q0 -133 -148 -412v-4q20 -97 20 -116q45 82 124 108h32q64 -9 64 -56v-12q0 -56 -112 -148q51 -48 108 -48q55 0 124 116q12 10 88 136l12 8h4q24 0 32 -24q0 -22 -124 -204q-9 0 -44 -52q-50 -36 -84 -36 h-16q-71 0 -148 72h-4q-16 -8 -24 -8v-44q0 -60 16 -208q-6 -20 -28 -20h-8q-30 0 -44 272q-7 17 -28 188q-8 44 -24 64l4 28q-8 55 -16 208zM28 711q0 -61 4 -168q74 113 108 288v44q0 44 -88 72q-24 -35 -24 -88v-148zM108 243h4q120 79 120 124v8h-16q-58 0 -96 -80 q-12 -36 -12 -48v-4z" />
<glyph unicode="l" horiz-adv-x="370" d="M-7 527v32q8 68 8 76v196q8 211 32 280q58 92 100 92h28q66 0 108 -144v-44q0 -128 -108 -396q-106 -172 -108 -192v-28q22 -228 100 -228q148 38 148 88q48 57 48 136q18 16 28 16q20 0 20 -68v-4q0 -44 -80 -160q-98 -60 -168 -60h-16q-57 0 -100 96q-24 83 -36 200 q4 22 4 44q-8 54 -8 68zM45 535h4q93 151 136 312q32 145 32 192q0 60 -64 112q-64 0 -88 -152q-4 -4 -4 -32v-48q-8 -118 -8 -128v-180l-8 -72v-4z" />
<glyph unicode="m" horiz-adv-x="1300" d="M-42 353q42 96 176 236q61 48 96 48h40q81 0 104 -132v-44q54 53 128 64h20q62 0 104 -100h4q60 84 136 84q0 7 28 8q76 0 116 -72q24 -66 24 -104v-60q11 -68 20 -68h32q71 4 164 88q99 108 168 108l12 -16v-12l-116 -92q-126 -128 -212 -128h-72q-28 0 -48 92v68 q-14 136 -68 136l-20 4q-71 0 -120 -68q-40 -78 -40 -192q-7 -72 -28 -72h-20q-6 0 -16 16v36q0 21 16 144v4q-16 144 -72 144q-83 -19 -120 -72q-29 -35 -52 -172q-64 -180 -92 -180h-4q-24 0 -24 28q0 54 92 300q0 2 8 60v48q-12 100 -64 100h-8q-71 0 -196 -176 q-30 -61 -68 -72q-28 10 -28 16z" />
<glyph unicode="n" horiz-adv-x="880" d="M-28 401q19 76 184 160q32 8 40 8h48q45 0 84 -84v-24h4q30 26 60 28h68q104 0 140 -104q12 -102 24 -124q29 -20 44 -20q55 0 180 152q17 16 32 16q24 0 24 -28q0 -15 -132 -152q-60 -40 -88 -40h-36q-92 19 -92 128q0 96 -72 112q-15 8 -32 8h-40q-64 0 -116 -144 q-31 -67 -48 -76h-20q-6 0 -16 16v8q0 13 44 116q20 48 20 80v12q0 68 -60 68q-69 0 -184 -112q0 -25 -36 -32q-24 0 -24 28z" />
<glyph unicode="o" horiz-adv-x="433" d="M-7 328v60q0 124 132 196q36 20 56 20h44q27 0 32 -36q104 -92 104 -168l12 -20l60 40q32 -4 32 -32q-21 -34 -88 -72l4 -28v-8q0 -173 -124 -216q-28 -8 -48 -8q-93 0 -180 124q-36 86 -36 148zM45 364q0 -205 152 -252h24q66 0 100 104q0 26 8 56q-4 7 -4 20l-28 -4 h-44q-54 0 -140 100q-36 65 -36 84q-32 -35 -32 -108zM129 496q0 -48 68 -120q48 -36 80 -36h4q20 0 40 12q-27 118 -96 176l-28 8h-20q-21 0 -48 -32v-8z" />
<glyph unicode="p" horiz-adv-x="349" d="M-21 442q6 20 28 20q25 0 40 -72q70 80 112 80h52q31 -1 76 -48q9 -15 16 -44q35 32 52 32h8q6 0 16 -16v-12q0 -29 -76 -68q0 -89 -108 -128h-72v-4q124 -299 124 -376v-20q0 -91 -84 -136h-28q-41 0 -92 84q-44 106 -44 196q-4 0 -12 112v108q8 135 28 164 q-36 97 -36 128zM39 54q16 -210 52 -296q18 -35 48 -52h4q37 0 52 88v4q-40 185 -132 380q0 9 -12 40h-4q-8 -68 -8 -76v-88zM91 278q22 -40 64 -40h4q88 15 88 68h-80l-24 4q-52 -5 -52 -32zM95 358h4q16 0 52 8q26 -8 36 -8h44l20 4q0 40 -60 56h-4q-46 0 -92 -60z" />
<glyph unicode="q" horiz-adv-x="629" d="M-14 446q0 70 96 208q62 67 176 67q0 4 28 4h4q96 -8 100 -34v-52q-16 -55 -40 -205q16 0 60 -33l28 -4h16q54 0 172 60h4q21 0 28 -26q0 -37 -176 -82q-48 -2 -48 -8q44 -123 92 -581q0 -82 -48 -153q-41 -26 -56 -26h-12q-131 0 -168 220q-8 23 -16 164q32 296 60 436 q-101 -90 -152 -90h-44q-40 0 -92 71q-12 49 -12 64zM42 434q0 -53 64 -74h8q79 0 172 134q48 121 48 175q-20 0 -48 8q-140 -18 -140 -38q-104 -112 -104 -205zM282 -28v-7q0 -266 100 -328l24 -4h16q48 35 48 127q0 62 -36 298q0 79 -60 291q-5 0 -32 33h-4 q-28 -149 -56 -410z" />
<glyph unicode="r" horiz-adv-x="545" d="M-41 380v12q64 66 64 168q13 72 44 72q84 -16 104 -16h56q84 -7 84 -56q28 -268 48 -268q44 0 164 128q7 4 16 4q24 0 24 -28v-8q-126 -152 -204 -152h-12q-69 0 -84 292q-8 0 -8 28h-12q-4 0 -32 8h-68q-5 0 -44 8h-16q-15 -124 -48 -176q-34 -44 -40 -44h-8 q-28 0 -28 28z" />
<glyph unicode="s" horiz-adv-x="426" d="M-14 417q91 83 204 260h12q31 0 60 -104q80 -133 80 -196q30 5 68 32q44 -10 44 -20v-12q-13 -27 -108 -60q-19 -108 -36 -108q-34 -28 -64 -28h-24q-107 0 -152 104v24q0 56 76 76h76q16 0 64 -16v8q0 41 -76 184q-12 20 -12 28h-4q0 -12 -76 -108q-2 -17 -92 -100h-24 q-10 0 -16 36zM122 305q30 -72 112 -72q48 0 52 68v16l-80 16h-40q-23 0 -44 -28z" />
<glyph unicode="t" horiz-adv-x="349" d="M-94 776q0 24 28 24h52v136q-8 58 -8 60q6 20 28 20q32 -7 32 -52v-156h100q28 0 28 -28q0 -24 -28 -24h-36q-64 0 -64 -12q0 -44 -4 -80q0 -271 84 -324q45 -36 60 -36h16q30 0 96 32q22 18 40 76l20 4q24 0 24 -28v-8q0 -93 -160 -128h-56q-71 22 -136 116 q-40 106 -40 264q-4 0 -4 24q0 11 8 92h-52q-28 0 -28 28z" />
<glyph unicode="u" horiz-adv-x="594" d="M-14 347v72q0 52 36 52q24 0 24 -28q-8 -32 -8 -40v-36q15 -128 36 -128q45 -48 84 -48q51 14 80 52q20 39 20 64v20l-16 100v16q12 20 28 20q31 0 48 -112q36 -120 92 -120h4q56 0 120 108q31 96 60 96h12q16 -6 16 -28q-47 -135 -116 -192q-42 -32 -84 -36h-24 q-52 0 -100 68q0 -61 -124 -108h-32q-79 0 -140 116q-8 15 -16 92z" />
<glyph unicode="v" horiz-adv-x="657" d="M-14 426v8q15 76 84 128q28 16 40 16h24q48 0 64 -92v-32q-16 -98 -16 -112v-8q0 -107 104 -208q91 94 136 180q-44 35 -44 84q0 57 80 68h4q30 0 56 -44v-8q-9 -49 -20 -68h12q37 0 148 80h16q20 -12 20 -28q-49 -63 -148 -104h-68q-41 -78 -152 -200q-9 -44 -40 -44 q-29 15 -56 64q-96 105 -96 184q-4 0 -4 16v64l16 108q-10 44 -20 44h-4q-35 0 -76 -76q-8 -48 -32 -48h-4q-24 0 -24 28zM434 386q4 -24 12 -24h4q8 26 8 36v4q-20 0 -24 -16z" />
<glyph unicode="w" horiz-adv-x="824" d="M-28 381v8q0 69 112 144q32 8 40 8h4q84 -14 84 -76v-16q-48 -206 -48 -224v-56q0 -24 28 -36q44 11 96 72q26 64 32 108q0 6 -8 64v32q10 20 32 20q32 0 32 -132q12 -115 40 -152q35 -41 100 -52h8q72 18 96 56q20 36 20 48v8q0 46 -64 56q-64 43 -64 84v32q9 44 44 44 h28q88 -36 88 -112h4q35 0 144 120q7 4 16 4q24 0 24 -28v-12q-20 -17 -64 -72q-82 -66 -108 -68l4 -28v-40q0 -54 -76 -116q-58 -28 -80 -28h-28q-80 0 -148 88q-20 45 -20 48h-4q-77 -96 -140 -96h-8q-76 15 -76 68v96q0 23 48 216q0 19 -36 24q-47 0 -96 -92 q0 -32 -28 -32h-8q-5 0 -20 20zM564 357q0 -27 52 -52v8q0 34 -48 56q-4 -8 -4 -12z" />
<glyph unicode="x" horiz-adv-x="587" d="M-25 408q54 130 136 168h72q78 0 140 -140q58 57 100 128l20 4q24 -8 24 -32q-26 -54 -120 -164q47 -120 96 -120q96 11 96 60q28 87 36 92q1 8 8 8h20q6 0 16 -16v-4q-32 -180 -112 -180q-30 -16 -68 -16h-4q-71 0 -128 132h-4q-91 -116 -124 -116q-28 0 -28 28 q0 11 72 76q0 5 60 72q-51 136 -112 136h-40q-58 -34 -88 -104q-17 -40 -44 -40q-24 0 -24 28z" />
<glyph unicode="y" horiz-adv-x="496" d="M-10 323v88q0 28 28 28q24 0 24 -28v-68q0 -96 72 -112h8q66 0 92 140q0 56 24 56h4q32 0 32 -36v-4q0 -13 -8 -56q0 -19 32 -128q191 208 196 208h20q16 -6 16 -28q-1 -17 -184 -208l-24 -32l68 -176q40 -94 40 -184q0 -91 -140 -140h-84q-59 0 -132 140q-8 40 -8 52 q0 100 100 204q20 49 92 116q-16 40 -28 88q-48 -64 -100 -64h-24q-74 0 -112 104zM122 -141v-28q0 -61 80 -128q13 -8 24 -8h24q47 0 100 40q17 18 28 60q0 63 -96 300v4h-4q-156 -190 -156 -240z" />
<glyph unicode="z" horiz-adv-x="719" d="M-49 -52q31 104 164 192q233 179 368 208h8q-7 76 -56 76h-40q-34 0 -128 -56h-4q-28 0 -28 28q0 25 80 72q52 47 52 56v16q0 12 -36 20q-131 0 -260 -128q0 -17 -56 -76q-7 -4 -16 -4q-24 0 -24 28v8q71 113 128 144q111 80 204 80h36q84 -18 84 -72q0 -19 -24 -64h52 q59 0 84 -80q0 -3 4 -24q57 16 176 40h16q20 -12 20 -28q0 -32 -144 -48q-64 -21 -64 -40q-46 -343 -92 -444q-73 -76 -128 -76h-136q-117 8 -156 28q-84 49 -84 96v48zM3 -72v-16q0 -31 72 -64q26 -12 156 -20h64q114 0 132 124q36 110 64 340h-4q-115 -36 -236 -120 q-153 -109 -204 -160q-44 -64 -44 -84z" />
<glyph unicode="{" horiz-adv-x="531" d="M126 579q0 24 56 24q48 0 48 68q-16 125 -16 160q0 98 104 136h24q44 0 44 -32q0 -24 -56 -24q-64 -22 -64 -88q0 -15 20 -144q0 -92 -60 -128q36 -41 36 -120v-16q-8 -97 -8 -108v-36q0 -104 68 -104q60 0 60 -32q0 -24 -28 -24q-115 0 -132 56q-20 39 -20 80v76 q0 16 8 100q0 91 -68 124q-16 17 -16 32z" />
<glyph unicode="|" horiz-adv-x="664" d="M307 746q4 415 4 512q6 20 28 20q24 0 24 -32q0 -208 -4 -484q0 -17 12 -288q-8 -156 -8 -224l4 -48q-6 -20 -28 -20q-28 5 -28 36v168q0 28 8 76q-12 196 -12 284z" />
<glyph unicode="}" horiz-adv-x="594" d="M188 923q0 24 28 24q70 0 124 -124q8 -18 8 -52q0 -33 -44 -176v-4q11 -26 60 -48q0 -4 4 -12q-8 -36 -36 -36q-14 -11 -28 -92q36 -179 36 -224q0 -91 -92 -124h-28q-28 0 -28 28t52 28q44 28 44 76q-36 193 -36 216q0 67 32 120q-32 37 -32 56v24q0 17 44 164 q-29 124 -88 124q-20 13 -20 32z" />
<glyph unicode="~" d="M245 659q21 84 84 84h48q31 0 212 -100l24 -4q27 11 48 32h12q28 0 28 -28q-36 -56 -84 -56h-12q-47 0 -216 100l-28 4h-12q-41 0 -60 -56l-20 -4q-24 0 -24 28z" />
<glyph unicode="&#xa1;" horiz-adv-x="672" d="M258 881q5 32 32 32h20q20 -10 20 -32v-4q0 -36 -44 -36q-28 12 -28 40zM270 93q0 183 8 600q6 20 28 20q18 0 24 -20q-8 -501 -8 -604l-16 -12h-20q-6 0 -16 16z" />
<glyph unicode="&#xa2;" horiz-adv-x="1139" />
<glyph unicode="&#xa3;" horiz-adv-x="817" d="M139 621v4q0 24 28 24q80 -4 88 -4q-8 81 -8 128q28 156 64 156q60 36 100 36q20 -6 20 -28q0 -21 -96 -56q-28 -55 -36 -120q4 -62 12 -116h120q22 0 32 -20v-8q0 -17 -16 -28q-40 4 -60 4h-48l-20 -4q8 -60 8 -100q0 -106 -48 -168q92 -13 236 -100l28 -8q51 0 116 56 q8 4 12 4q17 -5 24 -20v-8q0 -40 -108 -80q-26 -4 -52 -4q-38 0 -180 84q-110 28 -128 28q-25 -8 -40 -8q-24 8 -24 32q3 16 60 44q52 61 52 148l-12 100q-124 0 -124 32z" />
<glyph unicode="&#xa4;" d="M122 413l118 117q-32 46 -48 103q-12 42 -12 84q0 44 13 87q16 55 47 99l-118 118l80 81l118 -118q44 30 99 46q44 14 89 14q41 0 83 -12q57 -17 102 -48l118 118l80 -81l-117 -117q31 -46 48 -102q12 -42 12 -85q0 -42 -12 -85q-17 -56 -48 -102l117 -117l-80 -81 l-118 118q-45 -32 -101 -48q-42 -12 -85 -12q-42 0 -85 12q-57 16 -102 48l-118 -118zM284 716q0 -28 9 -56q16 -59 57 -100q41 -40 99 -57q29 -8 58 -8t58 8q58 17 99 57q40 41 57 99q9 29 9 58t-9 58q-17 58 -57 99q-41 40 -100 57q-29 8 -58 8t-58 -9q-58 -17 -98 -56 q-39 -40 -56 -98q-10 -30 -10 -60z" />
<glyph unicode="&#xa5;" horiz-adv-x="817" d="M181 843v8q0 28 28 28q23 0 108 -148l64 -88q66 134 172 252h12q24 0 24 -28q0 -11 -88 -124l-80 -140l16 -88q36 -8 136 -8q28 -8 28 -32q0 -12 -16 -24l-156 8v-52q53 -8 152 -8h16q28 0 28 -28v-8q0 -4 -20 -20l-40 4h-76q-20 0 -60 4q4 -157 4 -192l-16 -12h-20 q-6 0 -16 16q-4 105 -4 176v16q-116 0 -116 32v4q0 24 28 24q80 -4 88 -4v52q-124 0 -124 32v4q0 24 28 24q89 -4 96 -4v20q0 15 -152 232q0 5 -44 72z" />
<glyph unicode="&#xa6;" />
<glyph unicode="&#xa7;" d="M170 1130q0 148 89 237q82 79 216 86q8 1 17 1h3q66 0 163 -16.5t97 -41.5v-194h-51q-5 81 -80 132q-70 47 -149 51h-15q-78 0 -125 -44.5t-47 -117.5q0 -132 287 -269q149 -67 204.5 -143.5t55.5 -187.5q0 -171 -101 -282q-47 -39 -99 -64q108 -56 154 -118 q55 -77 55 -187q0 -171 -101 -283q-124 -102 -277 -105v1q-6 -1 -13 -1h-3q-66 0 -163 16.5t-97 41.5v194h51q5 -81 80 -132q68 -45 145 -50q113 6 185 69q72 64 72 165q0 125 -316 276q-123 64 -175.5 137t-52.5 177q0 148 89 237q67 65 170 82l-40 19q-123 64 -175.5 137 t-52.5 177zM297 571q0 -123 248 -250q56 16 97 53q73 65 73 166q0 5 -1 10h-2q-1 14 -4 27q-22 61 -113 127q-59 29 -126 29q-78 0 -125 -44.5t-47 -117.5z" />
<glyph unicode="&#xa8;" horiz-adv-x="1024" d="M209 1263q0 13 14 26l71 72q13 12 25 12q11 0 27 -14l69 -73q10 -14 10 -25q0 -13 -12 -27l-69 -75q-17 -17 -25 -17q-14 0 -25 12l-76 86q-9 12 -9 23zM574 1263q0 13 14 26l71 72q13 12 25 12q11 0 27 -13l69 -74q10 -14 10 -25q0 -13 -12 -26l-69 -76q-17 -17 -25 -17 q-14 0 -25 12l-76 87q-9 11 -9 22z" />
<glyph unicode="&#xa9;" horiz-adv-x="1072" d="M258 593v60q0 109 140 196q93 15 124 36q22 4 44 4q188 -58 188 -272q0 -146 -116 -208q-46 -24 -88 -24h-68q-123 0 -204 132q-20 36 -20 76zM310 613q0 -118 140 -168q30 -8 56 -8h16q135 0 172 128l8 48q0 155 -124 216l-20 4q-7 -13 -152 -40q-96 -78 -96 -160v-20z M382 617q24 104 76 104q26 4 52 4h16q28 0 28 -28t-64 -28h-20q-32 -22 -32 -56v-8q0 -49 64 -56l52 16h16q16 -6 16 -28q-16 -40 -84 -40h-12q-94 0 -108 120z" />
<glyph unicode="&#xaa;" horiz-adv-x="648" />
<glyph unicode="&#xab;" horiz-adv-x="944" d="M174 479l342 303h14v-37l-205 -266l205 -266v-37h-14zM487 479l342 303h14v-37l-205 -266l205 -266v-37h-14z" />
<glyph unicode="&#xac;" d="M87 667v100h840v-491l-1 -1h-98v392h-741z" />
<glyph unicode="&#xad;" horiz-adv-x="670" d="M167 567q3 24 24 24q251 -8 280 -8q20 -6 20 -28q0 -24 -28 -24h-16q-276 0 -276 20q-4 7 -4 16z" />
<glyph unicode="&#xae;" horiz-adv-x="996" d="M174 657v8q0 159 132 244q27 16 48 16q331 0 404 -172q16 -33 20 -100q0 -180 -148 -244q-60 -32 -132 -32h-20q-164 0 -260 120q-44 66 -44 160zM226 661q0 -162 160 -216q83 -16 100 -16q135 0 216 112q20 50 20 80v36q0 168 -228 200h-52l-40 12h-48q-53 0 -112 -124 q-16 -55 -16 -84zM358 789q6 20 28 20q24 -3 24 -24q57 20 84 20q68 -21 68 -72v-16q0 -38 -68 -68h-4q100 -70 100 -104q-8 -24 -32 -24q-9 0 -52 48q-53 40 -72 40v-4q0 -52 8 -108q-5 -16 -20 -24h-8q-32 0 -32 72zM418 725q4 -22 4 -36v-4q77 20 88 40q-5 17 -20 24 q-61 -10 -72 -24z" />
<glyph unicode="&#xaf;" horiz-adv-x="670" />
<glyph unicode="&#xb0;" horiz-adv-x="674" d="M209 1122v16q0 62 92 92h24q75 0 104 -88v-8q-20 -100 -132 -100q-88 13 -88 88zM261 1130q6 -40 36 -40h12q64 9 64 48q0 31 -68 36q-27 0 -44 -44z" />
<glyph unicode="&#xb1;" />
<glyph unicode="&#xb2;" />
<glyph unicode="&#xb3;" />
<glyph unicode="&#xb4;" horiz-adv-x="1024" d="M316 1078l291 297q35 35 55.5 47t40.5 12q33 0 53.5 -20t20.5 -51q0 -22 -15.5 -42t-46.5 -40l-330 -203h-69z" />
<glyph unicode="&#xb5;" horiz-adv-x="1180" />
<glyph unicode="&#xb6;" horiz-adv-x="1024" d="M93 1086q0 157 107.5 253t285.5 96h443v-70h-127v-1365h-82v1365h-166v-1365h-84v738q-174 8 -275.5 102.5t-101.5 245.5z" />
<glyph unicode="&#xb7;" horiz-adv-x="508" d="M129 709q0 15 16 31l82 84q15 14 29 14q13 0 31 -16l80 -86q12 -16 12 -29q0 -15 -14 -31l-80 -88q-20 -20 -29 -20q-16 0 -29 14l-88 101q-10 13 -10 26z" />
<glyph unicode="&#xb8;" horiz-adv-x="1024" d="M360 -290q85 -52 152 -52q66 0 94.5 21.5t28.5 66.5t-49 64q-40 16 -102 16q-16 0 -34 -2l48 176h63l-37 -104q32 4 62 5q86 0 134 -40.5t48 -113.5q0 -76 -58.5 -120.5t-160.5 -44.5q-109 0 -189 32v96z" />
<glyph unicode="&#xb9;" />
<glyph unicode="&#xba;" horiz-adv-x="718" />
<glyph unicode="&#xbb;" horiz-adv-x="944" d="M101 176v37l205 266l-205 266v37h14l342 -303l-342 -303h-14zM414 176v37l205 266l-205 266v37h14l342 -303l-342 -303h-14z" />
<glyph unicode="&#xbc;" horiz-adv-x="1708" />
<glyph unicode="&#xbd;" horiz-adv-x="1964" />
<glyph unicode="&#xbe;" horiz-adv-x="1708" />
<glyph unicode="&#xbf;" horiz-adv-x="748" />
<glyph unicode="&#xc0;" horiz-adv-x="1540" />
<glyph unicode="&#xc1;" horiz-adv-x="1540" />
<glyph unicode="&#xc2;" horiz-adv-x="1540" />
<glyph unicode="&#xc3;" horiz-adv-x="1540" />
<glyph unicode="&#xc4;" horiz-adv-x="1540" />
<glyph unicode="&#xc5;" horiz-adv-x="1540" />
<glyph unicode="&#xc6;" horiz-adv-x="2118" />
<glyph unicode="&#xc7;" horiz-adv-x="468" d="M-27 404v15q0 134 169 195h49q119 0 142 -113v-41q0 -34 -30 -34q-22 3 -22 23l3 34q0 82 -112 82q-78 0 -135 -97q-11 -25 -15 -57q0 -114 195 -153h11q128 0 203 127q0 38 37 38h4q7 0 15 -23q-11 -63 -67 -116q-89 -79 -192 -79q-95 0 -210 86q-45 54 -45 113zM34 -16 q8 15 24 20q26 -8 36 -8h32q100 20 100 100q-7 49 -28 104q0 28 28 28q52 -25 52 -132q0 -116 -124 -152h-84q-36 0 -36 32v8z" />
<glyph unicode="&#xc8;" horiz-adv-x="314" d="M-7 368v40q0 111 108 204q66 32 84 32h36q38 0 56 -68v-60q0 -97 -184 -144q-8 -4 -44 -8v-4q0 -70 104 -84q100 28 100 64q41 56 72 56h8q6 0 12 -12v-16q-86 -140 -168 -140q0 -4 -16 -4h-24q-144 22 -144 144zM14 832q6 17 20 24h12q94 -89 164 -100q64 -11 64 -28v-8 q0 -28 -24 -28q-83 0 -220 100q-16 22 -16 40zM49 420h4q83 0 164 76q8 28 8 48v12q-8 36 -20 36h-8q-49 -6 -112 -72q-21 -32 -36 -100z" />
<glyph unicode="&#xc9;" horiz-adv-x="314" d="M-7 368v40q0 111 108 204q66 32 84 32h36q38 0 56 -68v-60q0 -97 -184 -144q-8 -4 -44 -8v-4q0 -70 104 -84q100 28 100 64q41 56 72 56h8q6 0 12 -12v-16q-86 -140 -168 -140q0 -4 -16 -4h-24q-144 22 -144 144zM14 699q0 29 104 44q68 24 144 92h8q24 0 24 -28 q0 -62 -216 -132q-9 0 -44 -4q-20 6 -20 28zM49 420h4q83 0 164 76q8 28 8 48v12q-8 36 -20 36h-8q-49 -6 -112 -72q-21 -32 -36 -100z" />
<glyph unicode="&#xca;" horiz-adv-x="1151" />
<glyph unicode="&#xcb;" horiz-adv-x="1151" />
<glyph unicode="&#xcc;" horiz-adv-x="657" />
<glyph unicode="&#xcd;" horiz-adv-x="657" />
<glyph unicode="&#xce;" horiz-adv-x="657" />
<glyph unicode="&#xcf;" horiz-adv-x="657" />
<glyph unicode="&#xd0;" horiz-adv-x="1518" />
<glyph unicode="&#xd1;" horiz-adv-x="880" d="M-28 401q19 76 184 160q32 8 40 8h48q45 0 84 -84v-24h4q30 26 60 28h68q104 0 140 -104q12 -102 24 -124q29 -20 44 -20q55 0 180 152q17 16 32 16q24 0 24 -28q0 -15 -132 -152q-60 -40 -88 -40h-36q-92 19 -92 128q0 96 -72 112q-15 8 -32 8h-40q-64 0 -116 -144 q-31 -67 -48 -76h-20q-6 0 -16 16v8q0 13 44 116q20 48 20 80v12q0 68 -60 68q-69 0 -184 -112q0 -25 -36 -32q-24 0 -24 28zM180 675v8q50 80 112 80h12q46 0 144 -44q45 -41 76 -44h8q60 0 108 56h20q15 -7 20 -24q0 -30 -72 -72q-56 -16 -92 -16q-23 0 -128 68l-88 24 q-51 -14 -72 -56q0 -8 -8 -8h-24q-16 7 -16 28z" />
<glyph unicode="&#xd2;" horiz-adv-x="1614" />
<glyph unicode="&#xd3;" horiz-adv-x="1614" />
<glyph unicode="&#xd4;" horiz-adv-x="1614" />
<glyph unicode="&#xd5;" horiz-adv-x="1614" />
<glyph unicode="&#xd6;" horiz-adv-x="1614" />
<glyph unicode="&#xd7;" d="M161 470l247 247l-247 248l99 98l247 -247l248 247l98 -99l-247 -247l247 -247l-99 -99l-247 247l-247 -247z" />
<glyph unicode="&#xd8;" horiz-adv-x="1614" />
<glyph unicode="&#xd9;" horiz-adv-x="1501" />
<glyph unicode="&#xda;" horiz-adv-x="1501" />
<glyph unicode="&#xdb;" horiz-adv-x="1501" />
<glyph unicode="&#xdc;" horiz-adv-x="1501" />
<glyph unicode="&#xdd;" horiz-adv-x="1233" />
<glyph unicode="&#xde;" horiz-adv-x="1120" />
<glyph unicode="&#xdf;" horiz-adv-x="1251" />
<glyph unicode="&#xe0;" horiz-adv-x="922" />
<glyph unicode="&#xe1;" horiz-adv-x="922" />
<glyph unicode="&#xe2;" horiz-adv-x="922" />
<glyph unicode="&#xe3;" horiz-adv-x="922" />
<glyph unicode="&#xe4;" horiz-adv-x="922" />
<glyph unicode="&#xe5;" horiz-adv-x="922" />
<glyph unicode="&#xe6;" horiz-adv-x="1454" />
<glyph unicode="&#xe7;" horiz-adv-x="468" d="M-27 404v15q0 134 169 195h49q119 0 142 -113v-41q0 -34 -30 -34q-22 3 -22 23l3 34q0 82 -112 82q-78 0 -135 -97q-11 -25 -15 -57q0 -114 195 -153h11q128 0 203 127q0 38 37 38h4q7 0 15 -23q-11 -63 -67 -116q-89 -79 -192 -79q-95 0 -210 86q-45 54 -45 113zM34 -16 q8 15 24 20q26 -8 36 -8h32q100 20 100 100q-7 49 -28 104q0 28 28 28q52 -25 52 -132q0 -116 -124 -152h-84q-36 0 -36 32v8z" />
<glyph unicode="&#xe8;" horiz-adv-x="314" d="M-7 368v40q0 111 108 204q66 32 84 32h36q38 0 56 -68v-60q0 -97 -184 -144q-8 -4 -44 -8v-4q0 -70 104 -84q100 28 100 64q41 56 72 56h8q6 0 12 -12v-16q-86 -140 -168 -140q0 -4 -16 -4h-24q-144 22 -144 144zM14 832q6 17 20 24h12q94 -89 164 -100q64 -11 64 -28v-8 q0 -28 -24 -28q-83 0 -220 100q-16 22 -16 40zM49 420h4q83 0 164 76q8 28 8 48v12q-8 36 -20 36h-8q-49 -6 -112 -72q-21 -32 -36 -100z" />
<glyph unicode="&#xe9;" horiz-adv-x="314" d="M-7 368v40q0 111 108 204q66 32 84 32h36q38 0 56 -68v-60q0 -97 -184 -144q-8 -4 -44 -8v-4q0 -70 104 -84q100 28 100 64q41 56 72 56h8q6 0 12 -12v-16q-86 -140 -168 -140q0 -4 -16 -4h-24q-144 22 -144 144zM14 699q0 29 104 44q68 24 144 92h8q24 0 24 -28 q0 -62 -216 -132q-9 0 -44 -4q-20 6 -20 28zM49 420h4q83 0 164 76q8 28 8 48v12q-8 36 -20 36h-8q-49 -6 -112 -72q-21 -32 -36 -100z" />
<glyph unicode="&#xea;" horiz-adv-x="909" />
<glyph unicode="&#xeb;" horiz-adv-x="909" />
<glyph unicode="&#xec;" horiz-adv-x="514" />
<glyph unicode="&#xed;" horiz-adv-x="514" />
<glyph unicode="&#xee;" horiz-adv-x="514" />
<glyph unicode="&#xef;" horiz-adv-x="514" />
<glyph unicode="&#xf0;" horiz-adv-x="1139" />
<glyph unicode="&#xf1;" horiz-adv-x="880" d="M-28 401q19 76 184 160q32 8 40 8h48q45 0 84 -84v-24h4q30 26 60 28h68q104 0 140 -104q12 -102 24 -124q29 -20 44 -20q55 0 180 152q17 16 32 16q24 0 24 -28q0 -15 -132 -152q-60 -40 -88 -40h-36q-92 19 -92 128q0 96 -72 112q-15 8 -32 8h-40q-64 0 -116 -144 q-31 -67 -48 -76h-20q-6 0 -16 16v8q0 13 44 116q20 48 20 80v12q0 68 -60 68q-69 0 -184 -112q0 -25 -36 -32q-24 0 -24 28zM180 675v8q50 80 112 80h12q46 0 144 -44q45 -41 76 -44h8q60 0 108 56h20q15 -7 20 -24q0 -30 -72 -72q-56 -16 -92 -16q-23 0 -128 68l-88 24 q-51 -14 -72 -56q0 -8 -8 -8h-24q-16 7 -16 28z" />
<glyph unicode="&#xf2;" horiz-adv-x="1010" />
<glyph unicode="&#xf3;" horiz-adv-x="1010" />
<glyph unicode="&#xf4;" horiz-adv-x="1010" />
<glyph unicode="&#xf5;" horiz-adv-x="1010" />
<glyph unicode="&#xf6;" horiz-adv-x="1010" />
<glyph unicode="&#xf7;" d="M87 647v140h839l1 -1v-139h-840zM382 377q0 15 16 31l82 84q15 14 29 14q13 0 31 -16l80 -86q12 -16 12 -29q0 -15 -14 -31l-80 -88q-20 -20 -29 -20q-16 0 -29 14l-88 101q-10 13 -10 26zM382 1070q0 15 16 31l82 84q15 14 29 14q13 0 31 -16l80 -86q12 -16 12 -29 q0 -15 -14 -31l-80 -88q-20 -20 -29 -20q-16 0 -29 14l-88 101q-10 13 -10 26z" />
<glyph unicode="&#xf8;" horiz-adv-x="1010" />
<glyph unicode="&#xf9;" horiz-adv-x="1059" />
<glyph unicode="&#xfa;" horiz-adv-x="1059" />
<glyph unicode="&#xfb;" horiz-adv-x="1059" />
<glyph unicode="&#xfc;" horiz-adv-x="1059" />
<glyph unicode="&#xfd;" horiz-adv-x="868" />
<glyph unicode="&#xfe;" horiz-adv-x="1010" />
<glyph unicode="&#xff;" horiz-adv-x="868" />
<glyph unicode="&#x2c6;" horiz-adv-x="1024" d="M221 1079l232 355h118l232 -355h-58l-233 216l-233 -216h-58z" />
<glyph unicode="&#x2dc;" horiz-adv-x="1024" d="M234 1132q19 106 68 158.5t129 52.5q46 -1 113 -24q64 -23 112 -23h4q36 0 58 20t36 66h54q-20 -103 -68.5 -154t-126.5 -51h-4q-50 0 -113 23q-66 24 -114 24q-39 0 -60.5 -20.5t-33.5 -71.5h-54z" />
<glyph unicode="&#x2000;" horiz-adv-x="727" />
<glyph unicode="&#x2001;" horiz-adv-x="1454" />
<glyph unicode="&#x2002;" horiz-adv-x="727" />
<glyph unicode="&#x2003;" horiz-adv-x="1454" />
<glyph unicode="&#x2004;" horiz-adv-x="484" />
<glyph unicode="&#x2005;" horiz-adv-x="363" />
<glyph unicode="&#x2006;" horiz-adv-x="242" />
<glyph unicode="&#x2007;" horiz-adv-x="242" />
<glyph unicode="&#x2008;" horiz-adv-x="181" />
<glyph unicode="&#x2009;" horiz-adv-x="290" />
<glyph unicode="&#x200a;" horiz-adv-x="80" />
<glyph unicode="&#x2010;" horiz-adv-x="670" d="M167 567q3 24 24 24q251 -8 280 -8q20 -6 20 -28q0 -24 -28 -24h-16q-276 0 -276 20q-4 7 -4 16z" />
<glyph unicode="&#x2011;" horiz-adv-x="670" d="M167 567q3 24 24 24q251 -8 280 -8q20 -6 20 -28q0 -24 -28 -24h-16q-276 0 -276 20q-4 7 -4 16z" />
<glyph unicode="&#x2012;" horiz-adv-x="670" d="M167 567q3 24 24 24q251 -8 280 -8q20 -6 20 -28q0 -24 -28 -24h-16q-276 0 -276 20q-4 7 -4 16z" />
<glyph unicode="&#x2013;" horiz-adv-x="870" d="M146 461q0 24 28 24h16q6 0 96 8q164 -8 192 -8h52q11 0 140 8h4q6 0 16 -16v-20q-7 -24 -116 -24h-144q-72 0 -140 8q-40 -8 -80 -8h-36q-28 0 -28 28z" />
<glyph unicode="&#x2014;" horiz-adv-x="1020" d="M14 441q5 32 56 32q24 -16 36 -16h80q205 0 556 48q34 8 88 8h112q20 -12 20 -28q-5 -16 -20 -24h-80l-492 -52q-11 -4 -80 -4h-196q-80 0 -80 36z" />
<glyph unicode="&#x2018;" horiz-adv-x="346" d="M112 957v6q0 109 42 109q28 -5 28 -38q0 -109 -42 -109h-5q-6 0 -23 32z" />
<glyph unicode="&#x2019;" horiz-adv-x="346" d="M112 957v6q0 109 42 109q28 -5 28 -38q0 -109 -42 -109h-5q-6 0 -23 32z" />
<glyph unicode="&#x201a;" horiz-adv-x="557" />
<glyph unicode="&#x201c;" horiz-adv-x="545" d="M160 1084q0 28 8 44q-8 13 -8 24q0 28 28 28q25 0 32 -40v-20q-6 -56 -36 -56q-16 6 -24 20zM244 1080q12 20 12 52l-8 28q0 28 28 28q25 0 32 -40v-44q0 -39 -28 -56h-16q-20 10 -20 32z" />
<glyph unicode="&#x201d;" horiz-adv-x="545" d="M160 1084q0 28 8 44q-8 13 -8 24q0 28 28 28q25 0 32 -40v-20q-6 -56 -36 -56q-16 6 -24 20zM244 1080q12 20 12 52l-8 28q0 28 28 28q25 0 32 -40v-44q0 -39 -28 -56h-16q-20 10 -20 32z" />
<glyph unicode="&#x201e;" horiz-adv-x="910" />
<glyph unicode="&#x2022;" horiz-adv-x="1024" d="M216 718q0 123 87 209t210 86q122 0 208.5 -86.5t86.5 -208.5t-87.5 -209.5t-209.5 -87.5q-123 0 -209 87t-86 210z" />
<glyph unicode="&#x2026;" horiz-adv-x="2048" d="M129 136q0 15 16 31l82 84q15 14 29 14q13 0 31 -16l80 -86q12 -16 12 -29q0 -15 -14 -31l-80 -88q-20 -20 -29 -20q-16 0 -29 14l-88 101q-10 13 -10 26zM812 136q0 15 16 31l82 84q15 14 29 14q13 0 31 -16l80 -86q12 -16 12 -29q0 -15 -14 -31l-80 -88 q-20 -20 -29 -20q-16 0 -29 14l-88 101q-10 13 -10 26zM1495 136q0 15 16 31l82 84q15 14 29 14q13 0 31 -16l80 -86q12 -16 12 -29q0 -15 -14 -31l-80 -88q-20 -20 -29 -20q-16 0 -29 14l-88 101q-10 13 -10 26z" />
<glyph unicode="&#x202f;" horiz-adv-x="290" />
<glyph unicode="&#x2039;" horiz-adv-x="631" d="M174 479l342 303h14v-37l-205 -266l205 -266v-37h-14z" />
<glyph unicode="&#x203a;" horiz-adv-x="631" d="M101 176v37l205 266l-205 266v37h14l342 -303l-342 -303h-14z" />
<glyph unicode="&#x205f;" horiz-adv-x="363" />
<glyph unicode="&#x20ac;" horiz-adv-x="845" d="M14 520v20q0 6 16 16q21 0 80 -4q54 4 76 4q16 83 112 224q63 88 72 88q45 52 144 72h76q28 0 28 -28q0 -24 -28 -24h-36q-136 -23 -136 -52q-48 -38 -116 -152q-20 -28 -60 -124h4q248 12 304 12h64q28 0 28 -28v-8q0 -4 -20 -20l-28 4h-8l-356 -16q-8 -17 -8 -64 q157 12 236 12h132q80 -6 80 -24v-20q0 -6 -16 -16h-16q-68 8 -76 8h-56q-101 0 -284 -16q61 -332 272 -332q137 0 284 84h12q24 -8 24 -32q-19 -43 -196 -92q-76 -12 -112 -12h-28q-210 0 -300 312q-8 38 -8 60v12h-56q-28 0 -28 28q0 24 28 24h52l4 64h-4q-55 -4 -68 -4 q-74 0 -84 24z" />
<glyph unicode="&#x2122;" horiz-adv-x="1497" />
<glyph unicode="&#x25fc;" horiz-adv-x="575" d="M0 0v575h575v-575h-575z" />
</font>
</defs>
</svg>
